<?xml version="1.0" encoding="utf-8"?>
<!-- Generator: Adobe Illustrator 17.0.0, SVG Export Plug-In . SVG Version: 6.00 Build 0)  -->
<!DOCTYPE svg PUBLIC "-//W3C//DTD SVG 1.1//EN" "http://www.w3.org/Graphics/SVG/1.1/DTD/svg11.dtd">
<svg version="1.1" id="Layer_1" xmlns="http://www.w3.org/2000/svg" xmlns:xlink="http://www.w3.org/1999/xlink" x="0px" y="0px"
	 width="116px" height="42px" viewBox="0 0 116 42" enable-background="new 0 0 116 42" xml:space="preserve">
<path fill="#03A9F4" stroke="#03A9F4" stroke-miterlimit="10" d="M37.98,21.907c-1.012-0.666-2.373-0.386-3.039,0.626
	c-0.011,0.017-0.022,0.034-0.033,0.052l-10.06,15.918c-0.665,1.052-0.368,2.456,0.665,3.135c1.013,0.666,2.375,0.385,3.041-0.628
	c0.011-0.016,0.021-0.033,0.032-0.05l10.06-15.917C39.31,23.99,39.013,22.586,37.98,21.907L37.98,21.907z M33.452,14.017
	c-1.015-0.666-2.378-0.383-3.043,0.632c-0.01,0.016-0.021,0.032-0.031,0.048L15.334,38.502c-0.665,1.052-0.368,2.456,0.664,3.135
	s2.408,0.375,3.073-0.678l15.047-23.807c0.665-1.053,0.368-2.457-0.664-3.136L33.452,14.017z M32.556,0.363
	c-1.014-0.667-2.376-0.385-3.043,0.628c-0.011,0.016-0.021,0.032-0.031,0.049L5.808,38.5c-0.665,1.052-0.368,2.456,0.665,3.135
	c1.013,0.666,2.375,0.385,3.041-0.628c0.011-0.016,0.021-0.033,0.032-0.05L33.22,3.495c0.665-1.052,0.368-2.456-0.664-3.134V0.363z
	 M8.59,27.4L23.693,3.497c0.665-1.052,0.368-2.456-0.664-3.135c-1.014-0.667-2.376-0.386-3.043,0.628
	c-0.011,0.017-0.022,0.033-0.032,0.05L4.852,24.942c-0.666,1.053-0.37,2.457,0.663,3.136c1.016,0.666,2.38,0.383,3.046-0.633
	C8.571,27.43,8.581,27.415,8.59,27.4z M13.486,0.362c-1.012-0.667-2.374-0.386-3.04,0.626c-0.011,0.017-0.022,0.034-0.033,0.051
	L0.353,16.954c-0.663,1.053-0.366,2.457,0.666,3.136c1.015,0.665,2.377,0.382,3.042-0.633c0.01-0.015,0.019-0.029,0.028-0.044
	L14.15,3.495c0.666-1.052,0.37-2.456-0.664-3.134V0.362z M133.301,9.159h-9.892v6.914h9.544v4.082h-9.545v13.698h-4.283V5.077
	h14.178v4.082L133.301,9.159z M134.205,5.322V36.8h-4.137V5.322H134.205z M130.05,37.326h4.155v18.152h-4.155v-1.9
	c-1.705,1.612-3.537,2.422-5.5,2.422c-2.475,0-4.522-0.907-6.14-2.72c-1.607-1.852-2.41-4.163-2.41-6.934
	c0-2.72,0.803-4.99,2.41-6.803s3.616-2.72,6.03-2.72c2.085,0,3.955,0.87,5.61,2.61V37.326z M119.74,46.471
	c0,1.74,0.46,3.156,1.38,4.25c0.943,1.105,2.132,1.658,3.567,1.658c1.532,0,2.77-0.534,3.714-1.603
	c0.944-1.104,1.416-2.51,1.416-4.21s-0.472-3.106-1.416-4.212c-0.944-1.08-2.17-1.62-3.678-1.62c-1.422,0-2.61,0.545-3.567,1.64
	c-0.942,1.105-1.414,2.47-1.414,4.1L119.74,46.471z M90.455,59.364v14.237h-4.14v-14.24h-1.76v-3.912h1.76v-6.654h4.14v6.655h3.22
	v3.913L90.455,59.364L90.455,59.364z"/>
</svg>
